PathFileType	4	(X/Y/Z)	Patient4_TMGait_0pt6_02_left_31.trc.trc
DataRate	CameraRate	NumFrames	NumMarkers	Units	OrigDataRate	OrigDataStartFrame	OrigNumFrames
83.333333333333	83.333333333333	4	33	mm	83.333333333333	18	       141
Frame#	Time	Sacral			L.Shoulder			Chest			R.Shoulder			Neck			R.ASIS			L.ASIS			R.Thigh.Superior			R.Thigh.Lateral			R.Thigh.Inferior			R.Patella			L.Thigh.Superior			L.Thigh.Lateral			L.Thigh.Inferior			L.Patella			L.Shank.Superior			L.Shank.Lateral			L.Shank.Inferior			R.Shank.Superior			R.Shank.Lateral			R.Shank.Inferior			R.Heel			R.Midfoot.Superior			R.Midfoot.Lateral			R.Toe			L.Heel			L.Midfoot.Lateral			L.Midfoot.Superior			L.Toe			L.Elbow			L.Wrist			R.Elbow			R.Wrist			
		X1	Y1	Z1	X2	Y2	Z2	X3	Y3	Z3	X4	Y4	Z4	X5	Y5	Z5	X6	Y6	Z6	X7	Y7	Z7	X8	Y8	Z8	X9	Y9	Z9	X10	Y10	Z10	X11	Y11	Z11	X12	Y12	Z12	X13	Y13	Z13	X14	Y14	Z14	X15	Y15	Z15	X16	Y16	Z16	X17	Y17	Z17	X18	Y18	Z18	X19	Y19	Z19	X20	Y20	Z20	X21	Y21	Z21	X22	Y22	Z22	X23	Y23	Z23	X24	Y24	Z24	X25	Y25	Z25	X26	Y26	Z26	X27	Y27	Z27	X28	Y28	Z28	X29	Y29	Z29	X30	Y30	Z30	X31	Y31	Z31	X32	Y32	Z32	X33	Y33	Z33	

18	38.104000000000	844.836780266436	1017.525086602161	514.478457550459	1018.687330284792	1426.593322238873	298.634060779648	1145.752042245792	1346.386230916228	435.267897614127	1109.117618311072	1435.146731550296	617.698698294578	1055.528066100650	1488.078674355304	444.442077106006	1078.408692086194	932.183633968416	593.582607514576	1026.492176472274	959.381848471399	322.702253832861	1083.665403490179	723.440240716358	564.320553677208	991.880686321200	628.799579887627	634.990744504228	1048.633379440586	565.259810897244	548.119078767400	1033.917424248391	478.196208623844	555.599412604394	1109.480584860181	792.071729731088	360.525508211689	1075.916446308893	662.259438903654	279.437380605748	1178.364036997715	606.103699101727	346.168206784512	1209.535105776594	535.492097837591	338.104411410728	1183.603699770436	459.789351920965	326.738941423118	1104.232541119508	340.151715619263	268.350975194302	1175.360920990361	229.827514795035	324.457410849251	996.225097022090	394.103582828304	566.485633194223	915.785365823463	300.460744221073	632.354116536787	941.659017808843	200.880166460488	568.513177494530	790.457061484461	43.744419729090	544.747887044099	961.300728805758	95.545677045361	578.051117714960	873.283104624792	37.092332037227	619.570527839408	1081.667819361121	41.323132262851	609.276807720353	1071.378106216670	55.713301987851	353.384709869375	1148.540163326556	58.021019885880	276.571654272537	1223.251187915208	130.200471587976	302.012922828031	1355.893935613800	92.923740338864	280.939338212866	878.272176538561	1089.348165112514	228.535172368472	867.152886468920	829.115380222822	236.887054956780	1231.242971856607	1117.900054564331	722.184520389423	1426.566281549701	1189.277700711525	585.174351859495	
19	38.116000000000	845.200300132471	1016.152178299109	512.039548596516	1018.612185475297	1425.606120498735	296.982933094775	1145.494279263214	1345.445815048885	433.736954189904	1108.340866566555	1433.988037393979	616.059118649689	1055.090626864008	1486.950175935559	442.928253827042	1078.422876822116	931.204722507960	592.133655636724	1027.600579356661	957.695620138631	320.935337263954	1082.106274809466	721.985885715265	563.173632720871	989.448589858485	627.836911411121	633.878703424473	1045.577382028817	563.830762159528	547.099750488890	1030.014066540501	476.770675618136	554.604335815906	1108.597527757939	788.049041007728	358.902889144804	1072.532925026240	658.386876954931	278.180526924884	1174.139610862955	601.242203128173	345.088699199152	1204.787223952973	531.939773175309	337.653480964824	1180.711731196710	456.670565617962	326.152450613310	1104.770832970284	334.515460765707	268.231566514626	1179.128171213155	226.459911138469	324.733957654174	991.656723086523	392.905893666111	565.615986651381	910.499751603175	300.027631688591	631.800947895433	935.320418552568	200.167764340407	568.077093606910	783.159902149498	43.565979917097	544.709751382708	953.920192044669	95.405053261490	577.831381535836	865.960939850592	36.986624382303	619.570445622628	1074.354022867539	41.374802533619	609.294968970750	1079.840602737443	50.097197957119	353.864763824397	1157.453037442476	53.730951698740	277.414887682880	1230.465755689075	127.546821464155	303.049019915624	1364.177052171934	92.982114082864	282.875137489267	874.193970627160	1090.340253949438	227.783334693392	858.836092274198	830.357530343684	237.540848572544	1234.558793618613	1117.863305747216	716.796816942000	1425.289606132886	1195.756944675858	577.443150068865	
20	38.128000000000	845.765220205623	1014.586497046930	509.341897759317	1018.532454072929	1424.507561292843	295.148661487286	1145.220744560111	1344.554293969545	432.123030787672	1107.323108698514	1432.801710630406	614.323116740806	1054.507676819661	1485.769305589276	441.234455260548	1078.693638970339	930.152243522825	590.604670123470	1029.024312737643	955.856193048250	319.163137543078	1080.908498269228	720.469693076705	561.904264096648	987.368209955922	626.774988477509	632.617388527250	1042.915368375319	562.314325175387	545.956176772294	1026.484766858023	475.190400592834	553.456361746809	1108.147534142370	783.841973078736	356.999880334184	1069.193464072169	654.362759883290	276.913130323666	1170.217389037408	596.297993899338	343.644331009696	1200.030227865743	527.975355394942	336.873479623203	1177.437555282602	453.121164813885	325.350487111832	1103.827906889062	329.064450906310	268.628608653902	1180.884104689114	222.930817960412	325.224046623079	987.360617332997	391.605946052363	564.632799870338	905.428446961212	299.584792326192	631.192645875121	929.074977309877	199.426057354548	567.606694232027	775.872967586332	43.406224453824	544.678944307602	946.574630667569	95.290000597228	577.644225857175	858.656591528143	36.880562351785	619.565525382333	1067.062481286599	41.383922577255	609.323728656623	1085.043098180805	45.636407187156	355.225135448863	1162.721833319422	49.868524693662	278.812624093032	1234.823186254504	124.389404570109	304.363718618798	1369.019872223084	91.167795817579	284.521153747895	870.671975942345	1091.046069599356	226.855934762485	851.403471360771	831.337813942395	237.786118892726	1237.116502150258	1117.646152323448	711.578779782362	1423.457867679824	1201.144864859899	570.009455379264	
21	38.140000000000	846.490273851853	1012.874796574734	506.428440286642	1018.450450025034	1423.319731298199	293.134367651644	1144.942206642195	1343.719658928836	430.414966181775	1106.114780059118	1431.601786638445	612.490620747525	1053.803849615944	1484.558791680343	439.356847187212	1079.194385714123	929.029343020543	588.981241251645	1030.698613795052	953.923715044171	317.384322900304	1080.073695040173	718.907088238926	560.504015151141	985.652922297470	625.625628260960	631.197068213309	1040.687252446555	560.719089539061	544.692709997646	1023.384170601107	473.451477213037	552.158102545657	1108.133408842826	779.609653341666	354.814229874135	1065.984869172505	650.333144081719	275.669969634293	1166.731834019365	591.475501458624	341.866851106066	1195.431159136438	523.781243372668	335.821958526434	1173.970586238878	449.297525742021	324.379452235100	1101.653730789507	323.900639043771	269.405773212480	1180.837619633683	219.284783899526	325.849105384072	983.367501927784	390.216199233248	563.535828045324	900.595691337757	299.156848112959	630.527393218345	922.941261548331	198.677977719094	567.106722702919	768.597875644302	43.305069206344	544.666738531596	939.279756244554	95.208907936324	577.493616754165	851.378290194424	36.793910725689	619.557734721283	1059.803274337361	41.340401055298	609.364333501770	1087.127003288027	42.253466826505	357.211972812373	1164.571940764720	46.430870862831	280.557119882283	1236.539855705715	120.771748941253	305.864393831505	1370.730207415273	87.573801054954	285.842605111416	867.757909024595	1091.429998629754	225.711521969227	844.900185982493	832.017046482197	237.597645984612	1238.889624035430	1117.185550313086	706.581612213014	1421.138639189832	1205.408863454586	562.917504565485	
